<?xml version="1.0" encoding="UTF-8" standalone="no"?>
<!-- Created with Inkscape (http://www.inkscape.org/) -->
<svg
   xmlns:svg="http://www.w3.org/2000/svg"
   xmlns="http://www.w3.org/2000/svg"
   version="1.0"
   width="309"
   height="309"
   id="svg1901">
  <defs
     id="defs1903" />
  <g
     transform="translate(-11.428558,-10.005022)"
     id="layer1"
     style="opacity:1">
    <g
       transform="translate(7.0252355,9.5101858)"
       id="g3382">
      <rect
         width="28.53681"
         height="70.458138"
         x="144.76869"
         y="180.22581"
         id="rect2466"
         style="opacity:1;fill:#bbd401;fill-opacity:1;fill-rule:evenodd;stroke:none;stroke-width:0.80000001;stroke-linecap:round;stroke-linejoin:miter;stroke-miterlimit:4;stroke-dasharray:none;stroke-dashoffset:0;stroke-opacity:1" />
      <path
         d="M 147.48227,171.48347 L 147.48227,53.800698"
         transform="translate(11.428558,10.005022)"
         id="path3238"
         style="opacity:1;fill:none;fill-opacity:1;fill-rule:evenodd;stroke:#bbd401;stroke-width:9;stroke-linecap:round;stroke-linejoin:miter;stroke-miterlimit:4;stroke-dasharray:none;stroke-dashoffset:0;stroke-opacity:1" />
      <path
         d="M 148.49243,121.22839 L 192.18152,65.164914"
         transform="translate(11.428558,10.005022)"
         id="path3240"
         style="opacity:1;fill:none;fill-opacity:1;fill-rule:evenodd;stroke:#bbd401;stroke-width:9;stroke-linecap:round;stroke-linejoin:miter;stroke-miterlimit:4;stroke-dasharray:none;stroke-dashoffset:0;stroke-opacity:1" />
      <path
         d="M 223.74879,92.439033 L 158.59395,175.52408"
         transform="translate(11.428558,10.005022)"
         id="path3242"
         style="opacity:1;fill:none;fill-opacity:1;fill-rule:evenodd;stroke:#bbd401;stroke-width:9;stroke-linecap:round;stroke-linejoin:miter;stroke-miterlimit:4;stroke-dasharray:none;stroke-dashoffset:0;stroke-opacity:1" />
      <path
         d="M 200.83216,149.16361 L 252.34994,149.16361"
         id="path3244"
         style="opacity:1;fill:none;fill-opacity:1;fill-rule:evenodd;stroke:#bbd401;stroke-width:9;stroke-linecap:round;stroke-linejoin:miter;stroke-miterlimit:4;stroke-dasharray:none;stroke-dashoffset:0;stroke-opacity:1" />
      <path
         d="M 173.05296,184.01387 L 249.31948,184.01387"
         id="path3246"
         style="opacity:1;fill:none;fill-opacity:1;fill-rule:evenodd;stroke:#bbd401;stroke-width:9;stroke-linecap:round;stroke-linejoin:miter;stroke-miterlimit:4;stroke-dasharray:none;stroke-dashoffset:0;stroke-opacity:1" />
      <path
         d="M 176.58862,95.878064 C 166.55609,84.663743 167.09471,74.178458 176.58862,64.310796 C 186.08253,74.178458 186.62115,84.663743 176.58862,95.878064 z"
         id="path3248"
         style="opacity:1;fill:#bbd401;fill-opacity:1;fill-rule:evenodd;stroke:none;stroke-width:0.5;stroke-linecap:round;stroke-linejoin:miter;stroke-miterlimit:4;stroke-dasharray:none;stroke-dashoffset:0;stroke-opacity:1" />
      <path
         d="M 215.47949,111.03035 C 205.44696,99.816031 205.98558,89.330746 215.47949,79.463084 C 224.9734,89.330746 225.51202,99.816031 215.47949,111.03035 z"
         id="path3253"
         style="opacity:1;fill:#bbd401;fill-opacity:1;fill-rule:evenodd;stroke:none;stroke-width:0.5;stroke-linecap:round;stroke-linejoin:miter;stroke-miterlimit:4;stroke-dasharray:none;stroke-dashoffset:0;stroke-opacity:1" />
      <path
         d="M 196.28659,135.02147 C 186.25406,123.80715 186.79268,113.32187 196.28659,103.45421 C 205.7805,113.32187 206.31912,123.80715 196.28659,135.02147 z"
         id="path3255"
         style="opacity:1;fill:#bbd401;fill-opacity:1;fill-rule:evenodd;stroke:none;stroke-width:0.5;stroke-linecap:round;stroke-linejoin:miter;stroke-miterlimit:4;stroke-dasharray:none;stroke-dashoffset:0;stroke-opacity:1" />
      <path
         d="M 176.84115,159.26513 C 166.80862,148.05081 167.34724,137.56553 176.84115,127.69787 C 186.33506,137.56553 186.87368,148.05081 176.84115,159.26513 z"
         id="path3257"
         style="opacity:1;fill:#bbd401;fill-opacity:1;fill-rule:evenodd;stroke:none;stroke-width:0.5;stroke-linecap:round;stroke-linejoin:miter;stroke-miterlimit:4;stroke-dasharray:none;stroke-dashoffset:0;stroke-opacity:1" />
      <path
         d="M 221.76098,139.25149 C 226.4566,124.9559 235.80643,120.17972 249.09902,123.46785 C 245.30034,136.62365 236.48913,142.33275 221.76098,139.25149 z"
         id="path3259"
         style="opacity:1;fill:#bbd401;fill-opacity:1;fill-rule:evenodd;stroke:none;stroke-width:0.5;stroke-linecap:round;stroke-linejoin:miter;stroke-miterlimit:4;stroke-dasharray:none;stroke-dashoffset:0;stroke-opacity:1" />
      <path
         d="M 226.05413,174.35429 C 230.74975,160.0587 240.09958,155.28252 253.39217,158.57065 C 249.59349,171.72645 240.78228,177.43555 226.05413,174.35429 z"
         id="path3261"
         style="opacity:1;fill:#bbd401;fill-opacity:1;fill-rule:evenodd;stroke:none;stroke-width:0.5;stroke-linecap:round;stroke-linejoin:miter;stroke-miterlimit:4;stroke-dasharray:none;stroke-dashoffset:0;stroke-opacity:1" />
      <path
         d="M 194.48686,174.35429 C 199.18248,160.0587 208.53231,155.28252 221.8249,158.57065 C 218.02622,171.72645 209.21501,177.43555 194.48686,174.35429 z"
         id="path3263"
         style="opacity:1;fill:#bbd401;fill-opacity:1;fill-rule:evenodd;stroke:none;stroke-width:0.5;stroke-linecap:round;stroke-linejoin:miter;stroke-miterlimit:4;stroke-dasharray:none;stroke-dashoffset:0;stroke-opacity:1" />
      <path
         d="M 209.19799,210.46724 C 204.50237,196.17165 195.15254,191.39547 181.85995,194.6836 C 185.65863,207.8394 194.46984,213.5485 209.19799,210.46724 z"
         id="path3265"
         style="opacity:1;fill:#bbd401;fill-opacity:1;fill-rule:evenodd;stroke:none;stroke-width:0.5;stroke-linecap:round;stroke-linejoin:miter;stroke-miterlimit:4;stroke-dasharray:none;stroke-dashoffset:0;stroke-opacity:1" />
      <path
         d="M 240.76526,210.46724 C 236.06964,196.17165 226.71981,191.39547 213.42722,194.6836 C 217.2259,207.8394 226.03711,213.5485 240.76526,210.46724 z"
         id="path3267"
         style="opacity:1;fill:#bbd401;fill-opacity:1;fill-rule:evenodd;stroke:none;stroke-width:0.5;stroke-linecap:round;stroke-linejoin:miter;stroke-miterlimit:4;stroke-dasharray:none;stroke-dashoffset:0;stroke-opacity:1" />
      <path
         d="M 157.88566,131.23341 L 114.19657,75.169936"
         id="path3313"
         style="opacity:1;fill:none;fill-opacity:1;fill-rule:evenodd;stroke:#bbd401;stroke-width:9;stroke-linecap:round;stroke-linejoin:miter;stroke-miterlimit:4;stroke-dasharray:none;stroke-dashoffset:0;stroke-opacity:1" />
      <path
         d="M 82.629295,102.44405 L 147.78414,185.5291"
         id="path3315"
         style="opacity:1;fill:none;fill-opacity:1;fill-rule:evenodd;stroke:#bbd401;stroke-width:9;stroke-linecap:round;stroke-linejoin:miter;stroke-miterlimit:4;stroke-dasharray:none;stroke-dashoffset:0;stroke-opacity:1" />
      <path
         d="M 116.97449,149.16361 L 65.456705,149.16361"
         id="path3317"
         style="opacity:1;fill:none;fill-opacity:1;fill-rule:evenodd;stroke:#bbd401;stroke-width:9;stroke-linecap:round;stroke-linejoin:miter;stroke-miterlimit:4;stroke-dasharray:none;stroke-dashoffset:0;stroke-opacity:1" />
      <path
         d="M 144.75369,184.01387 L 68.487165,184.01387"
         id="path3319"
         style="opacity:1;fill:none;fill-opacity:1;fill-rule:evenodd;stroke:#bbd401;stroke-width:9;stroke-linecap:round;stroke-linejoin:miter;stroke-miterlimit:4;stroke-dasharray:none;stroke-dashoffset:0;stroke-opacity:1" />
      <path
         d="M 141.21803,95.878064 C 151.25056,84.663743 150.71194,74.178458 141.21803,64.310796 C 131.72412,74.178458 131.1855,84.663743 141.21803,95.878064 z"
         id="path3321"
         style="opacity:1;fill:#bbd401;fill-opacity:1;fill-rule:evenodd;stroke:none;stroke-width:0.5;stroke-linecap:round;stroke-linejoin:miter;stroke-miterlimit:4;stroke-dasharray:none;stroke-dashoffset:0;stroke-opacity:1" />
      <path
         d="M 102.32716,111.03035 C 112.35969,99.816031 111.82107,89.330746 102.32716,79.463084 C 92.833245,89.330746 92.294625,99.816031 102.32716,111.03035 z"
         id="path3323"
         style="opacity:1;fill:#bbd401;fill-opacity:1;fill-rule:evenodd;stroke:none;stroke-width:0.5;stroke-linecap:round;stroke-linejoin:miter;stroke-miterlimit:4;stroke-dasharray:none;stroke-dashoffset:0;stroke-opacity:1" />
      <path
         d="M 121.52006,135.02147 C 131.55259,123.80715 131.01397,113.32187 121.52006,103.45421 C 112.02615,113.32187 111.48753,123.80715 121.52006,135.02147 z"
         id="path3325"
         style="opacity:1;fill:#bbd401;fill-opacity:1;fill-rule:evenodd;stroke:none;stroke-width:0.5;stroke-linecap:round;stroke-linejoin:miter;stroke-miterlimit:4;stroke-dasharray:none;stroke-dashoffset:0;stroke-opacity:1" />
      <path
         d="M 140.9655,159.26513 C 150.99803,148.05081 150.45941,137.56553 140.9655,127.69787 C 131.47159,137.56553 130.93297,148.05081 140.9655,159.26513 z"
         id="path3327"
         style="opacity:1;fill:#bbd401;fill-opacity:1;fill-rule:evenodd;stroke:none;stroke-width:0.5;stroke-linecap:round;stroke-linejoin:miter;stroke-miterlimit:4;stroke-dasharray:none;stroke-dashoffset:0;stroke-opacity:1" />
      <path
         d="M 96.045669,139.25149 C 91.350045,124.9559 82.000215,120.17972 68.707625,123.46785 C 72.506305,136.62365 81.317515,142.33275 96.045669,139.25149 z"
         id="path3329"
         style="opacity:1;fill:#bbd401;fill-opacity:1;fill-rule:evenodd;stroke:none;stroke-width:0.5;stroke-linecap:round;stroke-linejoin:miter;stroke-miterlimit:4;stroke-dasharray:none;stroke-dashoffset:0;stroke-opacity:1" />
      <path
         d="M 91.752515,174.35429 C 87.056895,160.0587 77.707065,155.28252 64.414475,158.57065 C 68.213155,171.72645 77.024365,177.43555 91.752515,174.35429 z"
         id="path3331"
         style="opacity:1;fill:#bbd401;fill-opacity:1;fill-rule:evenodd;stroke:none;stroke-width:0.5;stroke-linecap:round;stroke-linejoin:miter;stroke-miterlimit:4;stroke-dasharray:none;stroke-dashoffset:0;stroke-opacity:1" />
      <path
         d="M 123.31979,174.35429 C 118.62417,160.0587 109.27434,155.28252 95.981749,158.57065 C 99.780429,171.72645 108.59164,177.43555 123.31979,174.35429 z"
         id="path3333"
         style="opacity:1;fill:#bbd401;fill-opacity:1;fill-rule:evenodd;stroke:none;stroke-width:0.5;stroke-linecap:round;stroke-linejoin:miter;stroke-miterlimit:4;stroke-dasharray:none;stroke-dashoffset:0;stroke-opacity:1" />
      <path
         d="M 108.60866,210.46724 C 113.30428,196.17165 122.65411,191.39547 135.9467,194.6836 C 132.14802,207.8394 123.33681,213.5485 108.60866,210.46724 z"
         id="path3335"
         style="opacity:1;fill:#bbd401;fill-opacity:1;fill-rule:evenodd;stroke:none;stroke-width:0.5;stroke-linecap:round;stroke-linejoin:miter;stroke-miterlimit:4;stroke-dasharray:none;stroke-dashoffset:0;stroke-opacity:1" />
      <path
         d="M 77.041385,210.46724 C 81.737005,196.17165 91.086835,191.39547 104.37943,194.6836 C 100.58075,207.8394 91.769535,213.5485 77.041385,210.46724 z"
         id="path3337"
         style="opacity:1;fill:#bbd401;fill-opacity:1;fill-rule:evenodd;stroke:none;stroke-width:0.5;stroke-linecap:round;stroke-linejoin:miter;stroke-miterlimit:4;stroke-dasharray:none;stroke-dashoffset:0;stroke-opacity:1" />
    </g>
    <g
       transform="translate(3.1492921,7.7142907)"
       id="g3412">
      <path
         d="M 283.77681,224.22976 C 260.6759,274.21705 210.08125,308.92856 151.42857,308.92856 C 70.994292,308.92856 5.7142944,243.64856 5.7142944,163.21428 C 5.7142944,105.88705 38.87469,56.257763 87.047849,32.474059"
         transform="matrix(0.9901961,0,0,0.9901961,11.48458,-3.394838)"
         id="path3359"
         style="opacity:1;fill:none;fill-opacity:1;fill-rule:evenodd;stroke:#bbd401;stroke-width:9.08910847;stroke-linecap:round;stroke-linejoin:miter;stroke-miterlimit:4;stroke-dashoffset:0;stroke-opacity:1" />
      <path
         d="M 111.1693,29.571697 L 106.83559,17.437607 L 115.8327,14.224276 L 116.56582,16.276974 L 110.01871,18.615285 L 110.97946,21.305312 L 117.07133,19.129588 L 117.8015,21.174009 L 111.70962,23.349733 L 112.88913,26.652258 L 119.66799,24.231174 L 120.39816,26.275594 L 111.1693,29.571697 M 128.45662,24.073102 L 128.09729,22.72263 C 127.89693,23.291319 127.56471,23.785956 127.10061,24.206541 C 126.64217,24.625623 126.11568,24.914262 125.52114,25.07246 C 124.91526,25.233672 124.33627,25.245246 123.78416,25.10718 C 123.23205,24.969115 122.78437,24.688059 122.44114,24.264011 C 122.09791,23.839965 121.81329,23.203265 121.58729,22.353909 L 120.06859,16.646255 L 122.45527,16.011201 L 123.55814,20.156045 C 123.89563,21.424417 124.14526,22.191691 124.30704,22.457867 C 124.47296,22.716882 124.69461,22.900436 124.97197,23.008531 C 125.24781,23.110969 125.5641,23.114728 125.92083,23.019806 C 126.32852,22.91133 126.66436,22.703735 126.92836,22.397021 C 127.19084,22.084651 127.33785,21.748437 127.36938,21.388376 C 127.39939,21.022662 127.24264,20.194295 126.89913,18.903272 L 125.88666,15.098169 L 128.27334,14.463115 L 130.67344,23.483248 L 128.45662,24.073102 M 135.51005,22.511005 L 133.08697,22.98873 L 131.28147,13.831032 L 133.53209,13.387308 L 133.7888,14.689391 C 134.05269,13.998351 134.31771,13.525063 134.58386,13.269528 C 134.85575,13.012878 135.18715,12.846013 135.57807,12.768932 C 136.12994,12.660137 136.69173,12.707639 137.26344,12.911438 L 136.92976,15.171997 C 136.46946,14.988036 136.06398,14.93062 135.71331,14.999748 C 135.37413,15.066627 135.1054,15.21815 134.9071,15.454319 C 134.70767,15.684754 134.58714,16.057889 134.54552,16.573724 C 134.50963,17.088438 134.64527,18.124742 134.95242,19.682638 L 135.51005,22.511005 M 138.87676,16.947697 C 138.77124,16.134205 138.86958,15.320853 139.17178,14.507638 C 139.47398,13.694438 139.96514,13.03988 140.64528,12.543963 C 141.33123,12.04731 142.12744,11.740188 143.03391,11.622595 C 144.43428,11.440956 145.64106,11.748232 146.65425,12.544426 C 147.66667,13.334827 148.26296,14.4244 148.44311,15.813149 C 148.62475,17.21353 148.32227,18.434459 147.53565,19.475939 C 146.75407,20.510859 145.67763,21.117258 144.30631,21.295139 C 143.45795,21.405185 142.62248,21.318578 141.79992,21.035318 C 140.98316,20.751307 140.32645,20.266326 139.82979,19.580374 C 139.33237,18.888616 139.0147,18.011057 138.87676,16.947697 M 141.40394,16.752824 C 141.52303,17.670917 141.83213,18.345746 142.33125,18.77731 C 142.83036,19.208881 143.39951,19.383209 144.03869,19.300296 C 144.67786,19.217388 145.18079,18.903995 145.54747,18.360118 C 145.91995,17.815494 146.0459,17.078325 145.92531,16.148609 C 145.80772,15.242147 145.49937,14.57313 145.00026,14.141554 C 144.50695,13.709241 143.94071,13.534535 143.30154,13.617438 C 142.66236,13.700357 142.15652,14.014126 141.78404,14.558747 C 141.41155,15.103382 141.28485,15.83474 141.40394,16.752824 M 150.4643,11.001004 L 152.76431,10.889076 L 152.83095,12.258549 C 153.10664,11.775837 153.49195,11.375777 153.98688,11.058368 C 154.48179,10.740977 155.03943,10.567182 155.6598,10.536983 C 156.7425,10.484305 157.68198,10.863893 158.47825,11.675749 C 159.2745,12.487622 159.70951,13.651446 159.78329,15.167224 C 159.85903,16.723979 159.53758,17.953947 158.81892,18.857131 C 158.09996,19.754466 157.19913,20.229477 156.11644,20.282166 C 155.60142,20.307229 155.12824,20.227595 154.6969,20.043265 C 154.2714,19.858651 153.81538,19.528864 153.32883,19.053905 L 153.55739,23.750495 L 151.09058,23.87054 L 150.4643,11.001004 M 153.12393,15.385701 C 153.1749,16.433293 153.4204,17.198631 153.86042,17.681718 C 154.30015,18.158957 154.81849,18.383051 155.41544,18.353999 C 155.98898,18.32609 156.45484,18.074633 156.81305,17.599628 C 157.17095,17.118775 157.32441,16.354554 157.27344,15.306962 C 157.22587,14.329609 156.9945,13.613446 156.57932,13.158473 C 156.16413,12.703514 155.66685,12.490129 155.08746,12.518317 C 154.48465,12.547659 153.99566,12.806107 153.62048,13.293662 C 153.24501,13.775379 153.07949,14.472725 153.12393,15.385701 M 167.47196,17.085834 L 169.92034,17.567785 C 169.57874,18.4609 169.05865,19.135053 168.36007,19.590246 C 167.66749,20.039746 166.80872,20.250116 165.78373,20.221354 C 164.16132,20.175829 162.9755,19.612072 162.22626,18.530084 C 161.6351,17.663554 161.35768,16.583083 161.394,15.288667 C 161.43739,13.742407 161.87546,12.544263 162.70823,11.694233 C 163.54115,10.838362 164.57554,10.427762 165.81138,10.462431 C 167.1995,10.501392 168.28187,10.991905 169.05849,11.933972 C 169.83526,12.870198 170.17954,14.28373 170.09132,16.174572 L 163.90626,16.001016 C 163.90328,16.733646 164.0864,17.310298 164.4556,17.730973 C 164.82497,18.145795 165.29372,18.361176 165.86186,18.377117 C 166.24842,18.387966 166.57645,18.29166 166.84594,18.0882 C 167.11542,17.884743 167.32409,17.550621 167.47196,17.085834 M 167.68254,14.594667 C 167.68501,13.879617 167.51572,13.332661 167.17466,12.953798 C 166.83374,12.569092 166.41144,12.369668 165.90773,12.355527 C 165.36888,12.340414 164.91824,12.524135 164.55581,12.90669 C 164.19337,13.289259 164.00563,13.817403 163.99259,14.491125 L 167.68254,14.594667 M 174.48932,14.011987 L 172.30026,13.383914 C 172.64185,12.511558 173.14054,11.89068 173.79634,11.521279 C 174.45213,11.151895 175.38338,11.028306 176.59011,11.150514 C 177.68605,11.261521 178.48891,11.475344 178.99866,11.791983 C 179.509,12.10281 179.85164,12.470261 180.02661,12.894338 C 180.20797,13.31319 180.24464,14.056016 180.1366,15.122818 L 179.81988,17.988301 C 179.73722,18.80444 179.714,19.411636 179.75023,19.809891 C 179.79287,20.202907 179.89961,20.63186 180.07044,21.096752 L 177.63951,20.850548 C 177.59191,20.680826 177.53772,20.430929 177.47692,20.100857 C 177.45087,19.950986 177.43146,19.851846 177.41871,19.803438 C 176.95764,20.168997 176.47777,20.429586 175.97909,20.585207 C 175.4804,20.740826 174.95998,20.791182 174.41783,20.736274 C 173.46178,20.639445 172.73313,20.303571 172.23187,19.728652 C 171.73644,19.154323 171.52887,18.47075 171.60917,17.677929 C 171.66231,17.153272 171.83488,16.699602 172.12688,16.316918 C 172.41947,15.928412 172.80112,15.649041 173.27184,15.478806 C 173.74898,15.30334 174.42138,15.177091 175.28903,15.10006 C 176.45929,15.000684 177.27539,14.880156 177.73734,14.738477 L 177.76213,14.493635 C 177.80995,14.021448 177.72731,13.674441 177.51421,13.452613 C 177.30168,13.224969 176.87188,13.078375 176.22481,13.012832 C 175.78759,12.968558 175.4377,13.021462 175.17515,13.171544 C 174.91319,13.31581 174.68458,13.595957 174.48932,14.011987 M 177.57527,16.338689 C 177.24984,16.411742 176.73872,16.486597 176.0419,16.563253 C 175.34508,16.639917 174.88466,16.737574 174.66063,16.856225 C 174.31697,17.051107 174.12743,17.323434 174.09201,17.673204 C 174.05717,18.01715 174.15531,18.327446 174.38643,18.604093 C 174.61754,18.880743 174.9313,19.039142 175.32771,19.079289 C 175.77075,19.124162 176.20815,19.021228 176.63992,18.770488 C 176.95966,18.579078 177.1824,18.327783 177.30815,18.016602 C 177.39353,17.813236 177.46603,17.417159 177.52567,16.828371 L 177.57527,16.338689 M 190.31929,22.864944 L 187.88821,22.42976 L 188.7276,17.740625 C 188.90518,16.748586 188.96787,16.099081 188.91568,15.792107 C 188.86451,15.479376 188.73515,15.221094 188.52759,15.017262 C 188.32578,14.814474 188.06051,14.683652 187.73175,14.624795 C 187.31071,14.549431 186.91227,14.597159 186.53645,14.767977 C 186.16062,14.938808 185.8752,15.203197 185.68017,15.561144 C 185.4909,15.920136 185.30438,16.612953 185.1206,17.639598 L 184.37568,21.800989 L 181.9446,21.365804 L 183.58932,12.177868 L 185.84737,12.582079 L 185.60577,13.931719 C 186.59332,13.037055 187.69559,12.698644 188.91258,12.916486 C 189.44896,13.012514 189.92166,13.198324 190.33068,13.473917 C 190.74071,13.743758 191.03136,14.048768 191.20262,14.388947 C 191.37963,14.730172 191.47733,15.098859 191.49571,15.495007 C 191.51984,15.8922 191.46841,16.445506 191.34143,17.154928 L 190.31929,22.864944 M 201.44703,12.277823 L 205.98979,13.682184 C 207.01421,13.998889 207.7709,14.318675 208.25986,14.641544 C 208.91622,15.07752 209.41799,15.646612 209.76515,16.34882 C 210.11228,17.051044 210.2982,17.838343 210.32291,18.71072 C 210.34932,19.577509 210.18428,20.587493 209.8278,21.740673 C 209.51455,22.753909 209.11863,23.588255 208.64002,24.243715 C 208.05523,25.044209 207.39168,25.633297 206.64937,26.01098 C 206.08852,26.297572 205.4051,26.445075 204.59909,26.453487 C 203.99683,26.457426 203.23667,26.31749 202.31861,26.033678 L 197.64149,24.587783 L 201.44703,12.277823 M 203.28876,15.128647 L 200.76818,23.282106 L 202.62391,23.855791 C 203.31805,24.070382 203.83118,24.186083 204.16331,24.202893 C 204.5975,24.22673 204.98336,24.158961 205.32089,23.999585 C 205.664,23.841939 206.00433,23.514774 206.34187,23.018089 C 206.68113,22.515808 206.99786,21.788839 207.29207,20.837179 C 207.58626,19.885527 207.72813,19.129033 207.71768,18.567694 C 207.70721,18.006367 207.59497,17.536226 207.38095,17.157272 C 207.1669,16.778331 206.84315,16.466657 206.40967,16.222248 C 206.08682,16.036589 205.41878,15.787138 204.40555,15.473896 L 203.28876,15.128647 M 213.77365,18.727216 L 214.58851,16.592283 L 216.89588,17.472961 L 216.08102,19.607894 L 213.77365,18.727216 M 209.99394,28.63002 L 213.32234,19.90964 L 215.62971,20.790318 L 212.30131,29.510698 L 209.99394,28.63002 M 218.42489,21.856479 L 220.52547,22.799966 L 219.9637,24.050691 C 220.42834,23.745536 220.95319,23.563763 221.53825,23.505372 C 222.12329,23.446993 222.6991,23.545039 223.26567,23.799511 C 224.25448,24.243652 224.91959,25.008076 225.261,26.092787 C 225.60238,27.177506 225.46219,28.412037 224.84041,29.796384 C 224.2018,31.218146 223.35743,32.168508 222.30728,32.647471 C 221.25952,33.121084 220.24123,33.135825 219.25242,32.691692 C 218.78206,32.480425 218.39647,32.19483 218.09567,31.834906 C 217.80019,31.477378 217.54336,30.976625 217.32518,30.332645 L 215.39859,34.621988 L 213.14568,33.61008 L 218.42489,21.856479 M 218.80638,26.970542 C 218.37665,27.927295 218.2483,28.720729 218.42133,29.350848 C 218.59676,29.975623 218.95707,30.410447 219.50226,30.655322 C 220.02606,30.890593 220.55531,30.877799 221.08999,30.616939 C 221.62707,30.350733 222.11047,29.739256 222.54021,28.782505 C 222.94112,27.889896 223.05976,27.146695 222.89611,26.552901 C 222.73245,25.959113 222.38605,25.543381 221.8569,25.305704 C 221.30636,25.058433 220.75334,25.06697 220.19783,25.331313 C 219.64471,25.590321 219.18089,26.13673 218.80638,26.970542 M 224.63446,35.054105 L 230.58104,23.623645 L 232.77201,24.763474 L 226.82543,36.193933 L 224.63446,35.054105 M 231.03661,32.933519 C 231.45649,32.228815 232.03653,31.650229 232.77674,31.197758 C 233.51695,30.745299 234.30764,30.534352 235.14882,30.564917 C 235.99503,30.598494 236.81075,30.849211 237.59601,31.317071 C 238.8091,32.039868 239.56781,33.027337 239.87214,34.279481 C 240.17944,35.526596 239.9747,36.751671 239.25792,37.954708 C 238.53511,39.167811 237.54266,39.940604 236.28056,40.273088 C 235.02648,40.603532 233.80548,40.414857 232.61754,39.707064 C 231.88263,39.269187 231.27941,38.684698 230.80788,37.953595 C 230.34139,37.225488 230.12492,36.43833 230.1585,35.592118 C 230.19506,34.740875 230.48777,33.854676 231.03661,32.933519 M 233.14366,34.342403 C 232.66979,35.137719 232.49566,35.859255 232.62126,36.507014 C 232.74685,37.154774 233.08649,37.643607 233.6402,37.973513 C 234.19389,38.303417 234.78295,38.367925 235.40737,38.167038 C 236.03681,37.969147 236.59147,37.467512 237.07134,36.662132 C 237.5392,35.876887 237.71033,35.160384 237.58475,34.512622 C 237.46418,33.867863 237.12705,33.380531 236.57336,33.050622 C 236.01965,32.720721 235.42807,32.654713 234.79863,32.852598 C 234.16918,33.050492 233.61752,33.547093 233.14366,34.342403 M 243.91856,35.365252 L 245.75134,36.715346 L 244.9955,37.741421 C 246.23853,37.427199 247.31294,37.603699 248.21873,38.270922 C 248.69991,38.625391 249.04444,39.03201 249.25232,39.490782 C 249.46017,39.949559 249.52963,40.462846 249.46069,41.030647 C 250.0863,40.872913 250.66315,40.83572 251.19124,40.919066 C 251.71931,41.002416 252.20036,41.203946 252.63439,41.523658 C 253.18633,41.930251 253.56997,42.387512 253.78531,42.895443 C 254.00408,43.398655 254.04797,43.936773 253.91698,44.509799 C 253.81746,44.931372 253.5036,45.500695 252.9754,46.217772 L 249.43596,51.022636 L 247.4475,49.557862 L 250.61162,45.262498 C 251.16068,44.517117 251.44674,43.985533 251.4698,43.667747 C 251.49431,43.24916 251.31551,42.899124 250.93339,42.617638 C 250.65504,42.412604 250.33067,42.30465 249.96026,42.293776 C 249.58983,42.282902 249.22873,42.402616 248.87698,42.652919 C 248.52868,42.898503 248.0939,43.375115 247.57264,44.082754 L 244.91415,47.691709 L 242.92569,46.226935 L 245.95949,42.108481 C 246.49813,41.377255 246.81026,40.879433 246.89589,40.615013 C 246.9815,40.350597 246.98705,40.110892 246.91255,39.895898 C 246.84275,39.684384 246.68048,39.484797 246.42574,39.297137 C 246.11909,39.071255 245.78229,38.950517 245.41536,38.934922 C 245.0484,38.919333 244.696,39.027253 244.35814,39.258683 C 244.02499,39.493593 243.59257,39.971942 243.06088,40.693731 L 240.37112,44.345144 L 238.38265,42.88037 L 243.91856,35.365252 M 256.95081,49.079821 L 255.54902,47.284978 C 256.33814,46.780023 257.10654,46.570859 257.85422,46.657485 C 258.60188,46.744122 259.42792,47.191527 260.33233,47.999701 C 261.15372,48.733703 261.67754,49.378602 261.90382,49.9344 C 262.13398,50.485833 262.1952,50.984511 262.08748,51.430436 C 261.988,51.875897 261.58103,52.498401 260.86657,53.297949 L 258.92602,55.429982 C 258.37941,56.041653 258.00372,56.519233 257.79894,56.862724 C 257.60242,57.205739 257.43664,57.615504 257.30158,58.092019 L 255.47966,56.463948 C 255.54091,56.298662 255.64395,56.064637 255.78879,55.761872 C 255.8558,55.625311 255.89838,55.533699 255.91651,55.487037 C 255.32863,55.511766 254.78724,55.440517 254.29233,55.273291 C 253.79741,55.106058 253.34679,54.840897 252.94046,54.477805 C 252.22393,53.837506 251.83187,53.137481 251.76428,52.377728 C 251.70106,51.621878 251.93494,50.946854 252.46592,50.352655 C 252.8173,49.959436 253.22357,49.693849 253.68475,49.555892 C 254.14982,49.41357 254.62279,49.411893 255.10367,49.55086 C 255.59282,49.689368 256.211,49.982462 256.95822,50.430145 C 257.96338,51.037626 258.69446,51.419821 259.15146,51.576732 L 259.31543,51.393229 C 259.63167,51.039332 259.76878,50.710023 259.72677,50.405303 C 259.68865,50.096216 259.4271,49.724986 258.94214,49.291612 C 258.61445,48.998797 258.30029,48.835935 257.99967,48.803027 C 257.70294,48.765756 257.35332,48.85802 256.95081,49.079821 M 258.07974,52.776053 C 257.77352,52.643866 257.31602,52.403989 256.70724,52.056421 C 256.09844,51.708852 255.66855,51.51722 255.41757,51.481526 C 255.025,51.437188 254.71158,51.546092 254.47733,51.808238 C 254.24698,52.066016 254.14398,52.374733 254.16835,52.734393 C 254.1927,53.09405 254.35343,53.406623 254.65053,53.672114 C 254.98258,53.968834 255.39695,54.142664 255.89363,54.193604 C 256.26481,54.226692 256.59272,54.154321 256.87737,53.97649 C 257.06598,53.862147 257.35745,53.584336 257.75178,53.143058 L 258.07974,52.776053 M 265.37569,59.36199 C 265.98776,58.815854 266.71475,58.438103 267.55666,58.228738 C 268.39856,58.01938 269.21611,58.055552 270.00931,58.337252 C 270.80639,58.623332 271.50922,59.107387 272.11779,59.789418 C 273.05791,60.843075 273.48516,62.012774 273.39952,63.298521 C 273.31822,64.580364 272.75513,65.687455 271.71023,66.619797 C 270.65657,67.559932 269.47789,67.999114 268.17419,67.937344 C 266.87875,67.876034 265.77072,67.329485 264.85009,66.297695 C 264.28054,65.659378 263.88063,64.92075 263.65035,64.081809 C 263.42397,63.247237 263.45382,62.431404 263.7399,61.634309 C 264.03034,60.833314 264.5756,60.075875 265.37569,59.36199 M 266.96255,61.338472 C 266.27176,61.95483 265.88904,62.5908 265.81437,63.246386 C 265.73969,63.901968 265.91691,64.470221 266.34602,64.951145 C 266.77513,65.432063 267.31764,65.670446 267.97357,65.666294 C 268.63339,65.666508 269.31306,65.354537 270.01259,64.730381 C 270.69461,64.121823 271.07297,63.489753 271.14765,62.83417 C 271.22622,62.182957 271.05095,61.616891 270.62185,61.135969 C 270.19273,60.655049 269.64827,60.41448 268.98845,60.414261 C 268.32862,60.414046 267.65332,60.722116 266.96255,61.338472 M 276.05108,64.677663 L 276.89862,65.755425 L 277.45132,65.320788 C 278.06849,64.835449 278.57978,64.537734 278.98519,64.427641 C 279.3942,64.322166 279.83077,64.370196 280.29489,64.571732 C 280.76721,64.774263 281.21526,65.144966 281.63905,65.683842 C 282.07367,66.236544 282.41635,66.842923 282.66708,67.50298 L 281.10652,68.305308 C 280.93752,67.938769 280.74075,67.612718 280.5162,67.327154 C 280.29525,67.046202 280.0691,66.896065 279.83775,66.876742 C 279.6146,66.858409 279.3165,66.995931 278.94344,67.289307 L 278.42529,67.696779 L 279.56621,69.147613 L 278.03938,70.348296 L 276.89846,68.897463 L 271.08821,73.46658 L 269.56155,71.525226 L 275.37179,66.956109 L 274.52425,65.878346 L 276.05108,64.677663 M 276.00971,80.10687 L 286.89765,73.21702 L 289.13004,76.74483 C 289.97598,78.081686 290.47295,78.987581 290.62096,79.462518 C 290.85233,80.189777 290.82638,80.937728 290.54312,81.706374 C 290.26478,82.471881 289.69238,83.128789 288.82592,83.677098 C 288.15748,84.100072 287.51874,84.33438 286.90971,84.380023 C 286.30065,84.425655 285.74586,84.343353 285.24533,84.133117 C 284.75286,83.924689 284.34235,83.654008 284.0138,83.321074 C 283.5777,82.862028 283.04477,82.134901 282.41501,81.13969 L 281.50796,79.706285 L 277.40084,82.305253 L 276.00971,80.10687 M 286.44689,76.580944 L 283.35727,78.536044 L 284.11863,79.739213 C 284.66693,80.605691 285.09045,81.148963 285.3892,81.369029 C 285.68792,81.589091 286.0103,81.704057 286.35632,81.713928 C 286.70545,81.728744 287.04094,81.634326 287.36278,81.430672 C 287.75888,81.180016 288.01203,80.856871 288.12225,80.461236 C 288.23245,80.065598 288.20694,79.669167 288.04574,79.271942 C 287.92918,78.978191 287.62025,78.435211 287.11896,77.643 L 286.44689,76.580944 M 283.40261,92.424824 L 282.2291,90.25171 L 290.44208,85.816595 L 291.53206,87.835038 L 290.36431,88.465643 C 291.10249,88.513172 291.63301,88.626231 291.95587,88.80482 C 292.2815,88.988566 292.53897,89.255732 292.72831,89.606317 C 292.99557,90.10126 293.11648,90.651938 293.09103,91.258353 L 290.83299,91.608705 C 290.87247,91.114581 290.8073,90.710273 290.63747,90.395778 C 290.4732,90.091593 290.24893,89.879748 289.96465,89.760243 C 289.68551,89.637952 289.29342,89.633264 288.78838,89.746179 C 288.2861,89.864249 287.33638,90.300533 285.9392,91.055033 L 283.40261,92.424824 M 289.71036,93.990744 C 290.45586,93.648512 291.26175,93.500995 292.12801,93.548192 C 292.99426,93.595392 293.76511,93.870136 294.44056,94.372424 C 295.11844,94.880039 295.64805,95.549202 296.02941,96.379917 C 296.61853,97.663261 296.6833,98.90686 296.22373,100.11072 C 295.76946,101.31212 294.90599,102.20495 293.6333,102.78919 C 292.34995,103.37832 291.09426,103.45186 289.86623,103.00984 C 288.64596,102.57067 287.74737,101.72274 287.17047,100.46602 C 286.81357,99.688555 286.64828,98.865036 286.67462,97.995465 C 286.7034,97.131212 286.97159,96.360145 287.47921,95.682261 C 287.99215,95.001931 288.73586,94.438092 289.71036,93.990744 M 290.64658,96.346184 C 289.80521,96.732418 289.25254,97.227895 288.98858,97.832619 C 288.7246,98.437337 288.72707,99.032578 288.99597,99.618341 C 289.26486,100.2041 289.71341,100.59133 290.34162,100.78006 C 290.97226,100.97409 291.71359,100.87555 292.56561,100.48443 C 293.39632,100.10308 293.94366,99.61005 294.20764,99.005332 C 294.47404,98.405933 294.4728,97.813355 294.20391,97.227598 C 293.935,96.641837 293.48523,96.251936 292.85459,96.057895 C 292.22394,95.863853 291.48793,95.959949 290.64658,96.346184 M 300.2868,107.19425 L 298.45103,107.90553 L 297.84136,106.33201 L 294.33373,107.69107 C 293.62345,107.96626 293.21351,108.14081 293.1039,108.2147 C 293.00186,108.29193 292.93271,108.39728 292.89645,108.53072 C 292.86229,108.66963 292.87485,108.81557 292.93413,108.96856 C 293.01668,109.18164 293.21005,109.46175 293.51422,109.8089 L 291.80383,110.69782 C 291.3669,110.2513 291.01719,109.68929 290.75469,109.01181 C 290.59381,108.59657 290.51709,108.19585 290.52455,107.80965 C 290.53747,107.42133 290.62251,107.10561 290.77967,106.86249 C 290.9444,106.62272 291.20362,106.39975 291.55732,106.19358 C 291.80598,106.04068 292.33735,105.80652 293.15143,105.4911 L 296.94591,104.02091 L 296.53629,102.9637 L 298.37206,102.25242 L 298.78168,103.30963 L 300.51091,102.63963 L 302.75041,104.42997 L 299.67713,105.62073 L 300.2868,107.19425 M 296.68175,116.41996 L 297.0445,118.88882 C 296.08859,118.86485 295.27952,118.59956 294.61729,118.09294 C 293.96243,117.59007 293.47753,116.85073 293.16258,115.87492 C 292.66406,114.33032 292.79976,113.02434 293.56968,111.95697 C 294.18925,111.11052 295.1152,110.48842 296.34753,110.09069 C 297.81962,109.61557 299.09528,109.62868 300.17449,110.13003 C 301.25926,110.62958 301.99152,111.46764 302.37127,112.6442 C 302.79779,113.96575 302.6966,115.14976 302.06772,116.19625 C 301.44439,117.24093 300.22679,118.0372 298.41491,118.58505 L 296.51442,112.69665 C 295.82279,112.93834 295.34031,113.3034 295.06697,113.79183 C 294.79919,114.27845 294.75259,114.79221 294.92716,115.3331 C 295.04594,115.70112 295.2462,115.9782 295.52793,116.16434 C 295.80965,116.35047 296.19426,116.43568 296.68175,116.41996 M 299.10037,115.78711 C 299.77526,115.55081 300.23436,115.20869 300.47768,114.76075 C 300.72656,114.311 300.77362,113.84635 300.61885,113.3668 C 300.45327,112.8538 300.12969,112.4903 299.64812,112.27631 C 299.16653,112.06232 298.60601,112.0616 297.96656,112.27414 L 299.10037,115.78711 M 303.50244,128.09798 L 302.49748,125.83738 C 302.95041,125.64221 303.26163,125.37312 303.43113,125.0301 C 303.60201,124.69277 303.63249,124.29927 303.52259,123.84963 C 303.3765,123.25198 303.05188,122.82465 302.54874,122.56763 C 302.05266,122.31491 301.32083,122.30681 300.35323,122.54333 C 299.27747,122.80628 298.56144,123.1713 298.20513,123.63841 C 297.85021,124.1112 297.74718,124.65211 297.89605,125.26113 C 298.00735,125.71647 298.22654,126.05798 298.55363,126.28566 C 298.88641,126.51194 299.3833,126.60763 300.04431,126.57273 L 300.21903,129.02723 C 299.07775,129.04681 298.1462,128.77688 297.42436,128.21745 C 296.70252,127.65799 296.199,126.79486 295.91379,125.62805 C 295.58962,124.30185 295.74919,123.14092 296.3925,122.14524 C 297.0372,121.15526 298.09948,120.4794 299.57936,120.11767 C 301.07629,119.75177 302.33696,119.86283 303.36136,120.45087 C 304.39143,121.03751 305.07134,122.00531 305.40108,123.35427 C 305.67097,124.45847 305.64617,125.39344 305.32668,126.15918 C 305.01424,126.92921 304.40616,127.57547 303.50244,128.09798 M 307.38583,134.04226 L 305.44938,134.39746 L 305.14493,132.73765 L 301.44494,133.41633 C 300.69572,133.55375 300.26036,133.64851 300.13885,133.70058 C 300.02417,133.75736 299.93652,133.8479 299.87593,133.9722 C 299.81638,134.10226 299.80141,134.24798 299.83101,134.40935 C 299.87224,134.63412 300.00977,134.94547 300.24361,135.34341 L 298.39709,135.89657 C 298.05144,135.37617 297.81307,134.75865 297.68198,134.04401 C 297.60164,133.606 297.60127,133.19801 297.68086,132.82003 C 297.76622,132.44098 297.90883,132.14675 298.10871,131.93734 C 298.3154,131.73262 298.61176,131.5621 298.9978,131.42576 C 299.27068,131.32209 299.83648,131.1915 300.6952,131.03399 L 304.69776,130.29981 L 304.4932,129.18462 L 306.42965,128.82942 L 306.6342,129.94461 L 308.45826,129.61002 L 310.32319,131.78781 L 307.08137,132.38245 L 307.38583,134.04226 M 302.11202,142.4344 L 302.00376,144.92741 C 301.06943,144.72401 300.32473,144.31122 299.76965,143.68904 C 299.22111,143.07194 298.88398,142.25457 298.75827,141.23692 C 298.55929,139.62611 298.9383,138.36899 299.8953,137.46555 C 300.66308,136.7508 301.68954,136.31404 302.97469,136.15529 C 304.50989,135.96564 305.76029,136.21855 306.72589,136.91401 C 307.69729,137.60875 308.25878,138.56962 308.41036,139.79663 C 308.5806,141.17482 308.25844,142.31864 307.44389,143.22811 C 306.63512,144.13684 305.28944,144.68978 303.40684,144.88693 L 302.64826,138.7461 C 301.92352,138.85334 301.38096,139.12109 301.02059,139.54937 C 300.66604,139.97692 300.5236,140.47273 300.59328,141.0368 C 300.64069,141.4206 300.78523,141.73041 301.02691,141.96624 C 301.26858,142.20206 301.63028,142.35811 302.11202,142.4344 M 304.60652,142.26794 C 305.31381,142.16285 305.82909,141.91323 306.15235,141.51907 C 306.48141,141.12418 306.61506,140.67668 306.55329,140.17658 C 306.48719,139.64158 306.23779,139.22369 305.80508,138.92292 C 305.37235,138.62213 304.82198,138.51595 304.15396,138.60438 L 304.60652,142.26794 M 300.04463,155.94141 L 299.93884,153.6499 L 301.30848,153.58667 C 300.75828,153.2308 300.33946,152.79848 300.05202,152.28972 C 299.7707,151.78653 299.61788,151.27154 299.59356,150.74477 C 299.54412,149.67364 299.9319,148.73483 300.75691,147.92835 C 301.58805,147.12745 302.77623,146.69134 304.32146,146.62 C 305.90181,146.54704 307.11886,146.86333 307.97262,147.56885 C 308.83222,148.27409 309.28824,149.19447 309.34067,150.32998 C 309.38875,151.37184 308.99723,152.29322 308.16611,153.09412 L 312.80179,152.88012 L 312.91569,155.34721 L 300.04463,155.94141 M 304.6046,149.13208 C 303.60957,149.17801 302.89598,149.3488 302.46384,149.64443 C 301.83837,150.07217 301.54212,150.64307 301.57509,151.35716 C 301.60129,151.92491 301.86357,152.39672 302.3619,152.77258 C 302.86608,153.14816 303.59813,153.31379 304.55805,153.26949 C 305.62917,153.22003 306.38994,152.99134 306.84036,152.58343 C 307.29663,152.17523 307.51085,151.66969 307.48302,151.06683 C 307.45599,150.48151 307.19917,150.00065 306.71255,149.62426 C 306.23204,149.25344 305.52939,149.08938 304.6046,149.13208 M 299.1562,174.32214 L 299.36264,171.4996 L 302.36366,170.59109 L 302.73935,165.45442 L 299.89797,164.18029 L 300.09927,161.42787 L 312.58364,167.37292 L 312.38297,170.11657 L 299.1562,174.32214 M 304.58968,169.91671 L 309.4877,168.49481 L 304.84613,166.41045 L 304.58968,169.91671 M 298.50675,178.04593 L 298.86545,175.60239 L 308.10047,176.95805 L 307.7673,179.22767 L 306.45422,179.03492 C 307.0175,179.51438 307.37515,179.92221 307.52716,180.25841 C 307.6783,180.60039 307.72494,180.96849 307.66708,181.36271 C 307.58538,181.91923 307.35303,182.43293 306.97005,182.90379 L 304.95062,181.8345 C 305.2777,181.46204 305.46721,181.09899 305.51912,180.74537 C 305.56933,180.40332 305.51622,180.09942 305.35981,179.83365 C 305.20918,179.56873 304.8977,179.33054 304.42537,179.11907 C 303.95217,178.91339 302.93005,178.69525 301.359,178.46463 L 298.50675,178.04593 M 299.59542,188.52648 L 298.68464,190.8497 C 297.86675,190.35433 297.29613,189.72237 296.97279,188.95382 C 296.65398,188.1922 296.6001,187.30967 296.81116,186.30625 C 297.14523,184.71795 297.91139,183.65164 299.10963,183.10733 C 300.06768,182.68014 301.1803,182.59982 302.4475,182.86636 C 303.96124,183.18475 305.06208,183.82944 305.75001,184.80042 C 306.44365,185.7726 306.66324,186.86362 306.40877,188.07348 C 306.12293,189.43241 305.44729,190.40998 304.38185,191.00618 C 303.32212,191.60358 301.86986,191.6903 300.02504,191.26635 L 301.29862,185.21134 C 300.57826,185.07779 299.9782,185.15515 299.49844,185.44344 C 299.02441,185.73292 298.7289,186.15576 298.61191,186.71195 C 298.53231,187.09038 298.56859,187.43032 298.72074,187.73177 C 298.87288,188.03321 299.16445,188.29811 299.59542,188.52648 M 302.00912,189.17787 C 302.71227,189.3078 303.28065,189.23874 303.71425,188.97069 C 304.15358,188.70384 304.42511,188.32386 304.52883,187.83075 C 304.63978,187.30322 304.53935,186.82704 304.22755,186.40221 C 303.91574,185.97736 303.42953,185.69846 302.76893,185.56551 L 302.00912,189.17787 M 301.37165,195.97634 L 302.37879,193.93375 C 303.17655,194.42495 303.6989,195.02605 303.94587,195.73706 C 304.19282,196.44806 304.14893,197.38646 303.81419,198.55225 C 303.51017,199.61102 303.15706,200.36309 302.75486,200.80845 C 302.35828,201.25541 301.93578,201.5273 301.48736,201.62411 C 301.04294,201.72814 300.30542,201.6322 299.27481,201.33628 L 296.51124,200.51532 C 295.72278,200.28891 295.12938,200.15815 294.73103,200.12302 C 294.33669,200.09513 293.8956,200.12393 293.40774,200.20941 L 294.08208,197.86095 C 294.25756,197.84427 294.51311,197.83535 294.84873,197.83419 C 295.00085,197.83519 295.10186,197.83371 295.15176,197.82976 C 294.87397,197.31107 294.70282,196.79252 294.63831,196.27412 C 294.5738,195.75571 294.61674,195.23463 294.76713,194.71087 C 295.03233,193.78725 295.49236,193.1299 296.14722,192.7388 C 296.80046,192.35333 297.51004,192.27056 298.27597,192.49049 C 298.78283,192.63603 299.1986,192.88648 299.5233,193.24185 C 299.85361,193.59883 300.06071,194.02406 300.14457,194.51754 C 300.23244,195.01827 300.23717,195.7024 300.15877,196.56992 C 300.04857,197.73922 300.02213,198.56375 300.07945,199.04352 L 300.31599,199.11144 C 300.77216,199.24242 301.12833,199.22276 301.3845,199.05248 C 301.6463,198.8838 301.86694,198.4869 302.04645,197.86178 C 302.16773,197.43938 302.17785,197.08567 302.07682,196.80062 C 301.98141,196.51719 301.74635,196.24242 301.37165,195.97634 M 298.53352,198.59962 C 298.51947,198.26639 298.53665,197.7501 298.58506,197.05076 C 298.63347,196.35141 298.61919,195.88096 298.54225,195.6394 C 298.41155,195.26658 298.17724,195.03166 297.83934,194.93464 C 297.50706,194.83923 297.18426,194.88065 296.87094,195.05892 C 296.55762,195.23718 296.34598,195.51779 296.23602,195.90076 C 296.11312,196.32877 296.13667,196.77751 296.30668,197.24696 C 296.43822,197.59563 296.64592,197.85949 296.9298,198.03855 C 297.11475,198.1587 297.49164,198.30045 298.06045,198.46379 L 298.53352,198.59962 M 295.5911,202.11851 L 295.09191,204.57547 C 294.60452,204.50893 294.18704,204.58352 293.83948,204.79925 C 293.49742,205.01698 293.22645,205.39813 293.02658,205.94269 C 292.80652,206.54225 292.75099,207.03367 292.85997,207.41697 C 292.93929,207.67701 293.10821,207.85448 293.36674,207.94937 C 293.54276,208.01397 293.70871,208.01246 293.8646,207.94486 C 294.01701,207.86972 294.21366,207.64854 294.45455,207.28132 C 295.55351,205.56254 296.36536,204.51546 296.89012,204.14008 C 297.61755,203.62062 298.40205,203.51534 299.24365,203.82424 C 300.00272,204.10284 300.53076,204.63681 300.82776,205.42615 C 301.12475,206.21548 301.04209,207.23997 300.57977,208.49961 C 300.13965,209.69873 299.61732,210.51815 299.01279,210.95788 C 298.40824,211.39759 297.6833,211.58715 296.83797,211.52656 L 297.23618,209.19169 C 297.61153,209.22334 297.93842,209.14047 298.21685,208.94308 C 298.49326,208.75116 298.72029,208.41319 298.89796,207.92914 C 299.12205,207.31857 299.19729,206.84998 299.12368,206.52338 C 299.06727,206.30294 298.9428,206.15739 298.75029,206.08673 C 298.58527,206.02616 298.41674,206.05169 298.2447,206.16331 C 298.01396,206.3158 297.53222,206.95663 296.79946,208.0858 C 296.06468,209.22046 295.40393,209.95787 294.81721,210.29804 C 294.227,210.63066 293.56336,210.66172 292.82629,210.3912 C 292.0232,210.09643 291.45603,209.50753 291.12477,208.62448 C 290.79352,207.74142 290.86914,206.64257 291.35165,205.32794 C 291.78975,204.13431 292.37903,203.27704 293.11947,202.75613 C 293.8579,202.24072 294.68178,202.02818 295.5911,202.11851"
         id="text3364"
         style="font-size:18px;font-style:normal;font-variant:normal;font-weight:bold;font-stretch:normal;text-align:start;line-height:100%;writing-mode:lr-tb;text-anchor:start;fill:#bbd401;fill-opacity:1;stroke:none;stroke-width:1px;stroke-linecap:butt;stroke-linejoin:miter;stroke-opacity:1;font-family:Arial;-inkscape-font-specification:Sans Bold" />
      <path
         d="M 146.25056,41.13297 C 146.17394,40.316249 146.30105,39.506894 146.63189,38.704904 C 146.96273,37.902928 147.47679,37.266194 148.17409,36.794701 C 148.87721,36.322678 149.68381,36.043976 150.59388,35.958593 C 151.99981,35.826713 153.19494,36.176578 154.17926,37.00819 C 155.16303,37.833987 155.72031,38.944014 155.85112,40.338276 C 155.983,41.744217 155.63742,42.953655 154.81437,43.966593 C 153.9966,44.973154 152.89933,45.541011 151.52257,45.670165 C 150.67084,45.750065 149.83897,45.633895 149.02697,45.321652 C 148.22079,45.008864 147.58168,44.500906 147.10965,43.797778 C 146.63707,43.08882 146.35071,42.200552 146.25056,41.13297 M 148.78306,41.027812 C 148.86952,41.94955 149.15451,42.634912 149.63801,43.0839 C 150.12151,43.532894 150.68412,43.72729 151.32584,43.667088 C 151.96755,43.606892 152.48127,43.311526 152.867,42.78099 C 153.25856,42.249913 153.41056,41.517672 153.323,40.584266 C 153.23762,39.674205 152.95318,38.994677 152.46969,38.545679 C 151.99201,38.096148 151.43232,37.901478 150.79061,37.961669 C 150.1489,38.021876 149.63226,38.317516 149.2407,38.848589 C 148.84914,39.379676 148.69659,40.106083 148.78306,41.027812 M 156.98282,35.706219 L 158.35368,35.680614 L 158.34055,34.977612 C 158.32588,34.192604 158.39696,33.605237 158.55377,33.21551 C 158.71644,32.825698 159.01815,32.506532 159.4589,32.258011 C 159.90539,32.003548 160.47135,31.869909 161.15679,31.857093 C 161.85978,31.843976 162.55011,31.936569 163.22776,32.134873 L 162.92601,33.863466 C 162.53174,33.777075 162.153,33.737266 161.78979,33.744039 C 161.43243,33.750725 161.17625,33.840485 161.02125,34.013321 C 160.87199,34.18021 160.80179,34.500913 160.81066,34.975429 L 160.82297,35.634494 L 162.66835,35.600026 L 162.70463,37.54207 L 160.85924,37.576538 L 160.99728,44.96685 L 158.52798,45.012971 L 158.38995,37.622659 L 157.01909,37.648263 L 156.98282,35.706219 M 174.24185,36.215712 L 174.08633,38.17831 L 172.4041,38.045009 L 172.10695,41.794974 C 172.04678,42.554315 172.02621,42.999392 172.04523,43.130208 C 172.07056,43.255649 172.13547,43.363653 172.23997,43.454221 C 172.35031,43.545254 172.48726,43.59725 172.65081,43.610208 C 172.87861,43.628261 173.21488,43.575557 173.65962,43.452098 L 173.71854,45.378789 C 173.12667,45.578754 172.4686,45.65004 171.74431,45.592647 C 171.30038,45.55747 170.90606,45.452752 170.56133,45.278492 C 170.21705,45.098391 169.96948,44.884807 169.81861,44.637742 C 169.67403,44.385299 169.58559,44.055015 169.55327,43.64689 C 169.52338,43.356513 169.54292,42.776166 169.61188,41.905845 L 169.93333,37.849225 L 168.80309,37.759663 L 168.9586,35.797065 L 170.08885,35.886627 L 170.23534,34.037929 L 172.81997,32.796812 L 172.55962,36.082411 L 174.24185,36.215712 M 179.6541,33.31037 L 178.92303,37.990924 C 179.85412,37.193428 180.86675,36.880127 181.96091,37.051018 C 182.52246,37.138737 183.01273,37.322063 183.43175,37.600996 C 183.85074,37.879944 184.14781,38.199144 184.32296,38.558596 C 184.50388,38.918966 184.60413,39.302309 184.6237,39.708627 C 184.64904,40.11586 184.59706,40.7334 184.46777,41.561249 L 183.62276,46.97124 L 181.18262,46.590105 L 181.94353,41.718508 C 182.09453,40.751719 182.14407,40.130832 182.09214,39.855846 C 182.04019,39.580871 181.9073,39.349585 181.69346,39.161986 C 181.4863,38.969515 181.20616,38.845698 180.85302,38.790533 C 180.44777,38.727243 180.07058,38.769144 179.72144,38.916237 C 179.37228,39.063343 179.09125,39.324864 178.87835,39.700801 C 178.67212,40.071865 178.50843,40.645269 178.38727,41.421015 L 177.66569,46.040783 L 175.22555,45.659648 L 177.21396,32.929235 L 179.6541,33.31037 M 192.05496,45.952901 L 194.33856,46.958903 C 193.80982,47.75563 193.15482,48.299646 192.37356,48.590952 C 191.59942,48.878018 190.71542,48.895381 189.72157,48.643042 C 188.14843,48.24362 187.1147,47.434055 186.62037,46.214345 C 186.23313,45.239461 186.19885,44.124471 186.51753,42.869369 C 186.8982,41.370072 187.58783,40.296818 188.58641,39.649603 C 189.58642,38.996724 190.68558,38.822407 191.88389,39.12665 C 193.22985,39.4684 194.17866,40.18386 194.73033,41.273031 C 195.28342,42.356535 195.31006,43.811144 194.81025,45.636863 L 188.81304,44.114162 C 188.64983,44.828388 188.70233,45.431133 188.97054,45.922401 C 189.24019,46.407991 189.65046,46.720721 190.20134,46.86059 C 190.57616,46.955759 190.91731,46.933562 191.22479,46.793999 C 191.53226,46.654437 191.80898,46.374071 192.05496,45.952901 M 192.80554,43.568179 C 192.96441,42.870998 192.91889,42.300253 192.669,41.855943 C 192.42052,41.405964 192.05208,41.118968 191.56368,40.994954 C 191.04119,40.862301 190.56127,40.942965 190.12391,41.236947 C 189.68655,41.53094 189.3878,42.005207 189.22765,42.659749 L 192.80554,43.568179 M 209.9703,50.437724 L 211.99048,52.146934 C 211.0922,53.295937 210.09471,54.013113 208.99801,54.298466 C 207.90896,54.580659 206.72631,54.455595 205.45008,53.923273 C 203.87099,53.264631 202.79755,52.185207 202.22975,50.684996 C 201.6642,49.179379 201.77165,47.491019 202.5521,45.619912 C 203.37765,43.640659 204.52928,42.317996 206.007,41.65192 C 207.48696,40.980455 209.05974,40.992082 210.72536,41.686802 C 212.18005,42.293572 213.18233,43.216344 213.73222,44.455123 C 214.06096,45.189025 214.16203,46.088251 214.03545,47.152802 L 211.42188,46.729279 C 211.5384,46.054147 211.44668,45.444513 211.14672,44.900376 C 210.85213,44.358506 210.38579,43.954487 209.74768,43.688317 C 208.86619,43.320659 208.0177,43.338147 207.20221,43.740781 C 206.39211,44.145685 205.69157,45.056557 205.10061,46.473398 C 204.47354,47.976774 204.29732,49.160301 204.57194,50.023983 C 204.84656,50.887667 205.41649,51.499958 206.28175,51.860857 C 206.91986,52.127019 207.55334,52.153171 208.18218,51.939313 C 208.81101,51.725454 209.40705,51.224924 209.9703,50.437724 M 214.25894,52.330488 C 214.65304,51.611051 215.21176,51.011852 215.93511,50.532891 C 216.65846,50.05394 217.441,49.814517 218.28274,49.814619 C 219.1296,49.81755 219.95387,50.038582 220.75554,50.477718 C 221.994,51.15614 222.78795,52.115505 223.13739,53.355815 C 223.48962,54.590992 223.32935,55.822673 222.65657,57.050863 C 221.97815,58.289329 221.01431,59.097532 219.76507,59.475474 C 218.52377,59.851085 217.29673,59.706722 216.08397,59.042383 C 215.33369,58.63139 214.70971,58.069114 214.21204,57.355554 C 213.71949,56.644807 213.47468,55.865998 213.47761,55.019125 C 213.48335,54.167116 213.74379,53.270905 214.25894,52.330488 M 216.41559,53.662197 C 215.97082,54.47414 215.82291,55.201506 215.97187,55.844296 C 216.12082,56.487086 216.47793,56.963307 217.04321,57.272959 C 217.60848,57.582608 218.19949,57.625756 218.81623,57.402403 C 219.4381,57.181863 219.97424,56.660484 220.42465,55.838265 C 220.86378,55.036602 221.00888,54.314376 220.85993,53.671583 C 220.71611,53.03161 220.36156,52.556797 219.79629,52.247142 C 219.23101,51.937496 218.63743,51.89294 218.01557,52.113475 C 217.39368,52.334019 216.86036,52.850259 216.41559,53.662197 M 227.12485,65.670114 L 227.91154,64.515116 C 227.35028,64.735435 226.75881,64.807567 226.13713,64.73151 C 225.52028,64.658746 224.95761,64.449195 224.44913,64.102858 C 223.93095,63.749919 223.54356,63.319461 223.28695,62.811483 C 223.03035,62.303502 222.95021,61.781024 223.04656,61.244047 C 223.14291,60.707071 223.43846,60.075376 223.93324,59.348961 L 227.2581,54.467458 L 229.29932,55.857765 L 226.88484,59.402666 C 226.14598,60.487446 225.72876,61.178063 225.63318,61.474521 C 225.54574,61.769434 225.55182,62.057151 225.65142,62.337672 C 225.75431,62.613348 225.95831,62.855089 226.26341,63.062894 C 226.61208,63.300383 226.98876,63.4187 227.39344,63.417848 C 227.80141,63.412149 228.1519,63.303494 228.44492,63.091884 C 228.74122,62.875427 229.2654,62.215126 230.01746,61.110977 L 232.23404,57.856642 L 234.27526,59.246949 L 229.02079,66.961467 L 227.12485,65.670114 M 237.59661,73.945631 L 235.69913,72.364769 L 238.74834,68.704864 C 239.39343,67.930567 239.76923,67.397121 239.87573,67.104524 C 239.98597,66.807427 240.00132,66.518967 239.92177,66.239144 C 239.84671,65.963075 239.68088,65.718149 239.42429,65.504365 C 239.09566,65.230576 238.72578,65.074949 238.31467,65.037483 C 237.90354,65.000022 237.52469,65.088591 237.17812,65.30319 C 236.83604,65.521545 236.33121,66.031374 235.66361,66.83268 L 232.95758,70.080676 L 231.0601,68.499814 L 237.03475,61.328562 L 238.79718,62.796907 L 237.91955,63.850311 C 239.22038,63.561333 240.34573,63.812526 241.2956,64.60389 C 241.71425,64.952695 242.03314,65.348022 242.25227,65.789872 C 242.47512,66.227224 242.57682,66.63608 242.55737,67.01644 C 242.5424,67.400553 242.44491,67.769295 242.26491,68.122668 C 242.08939,68.47979 241.77098,68.935207 241.30967,69.488921 L 237.59661,73.945631 M 249.83936,76.788293 L 247.80951,75.374092 C 248.09606,74.972686 248.22309,74.581368 248.1906,74.200138 C 248.16223,73.823058 247.98467,73.470585 247.65792,73.142717 C 247.22361,72.706946 246.72469,72.509299 246.16115,72.549774 C 245.60589,72.590267 244.97549,72.962088 244.26996,73.665237 C 243.48556,74.446975 243.0618,75.129886 242.99867,75.713972 C 242.93966,76.302206 243.13145,76.81836 243.57402,77.262436 C 243.90491,77.59445 244.26921,77.773225 244.66692,77.798761 C 245.06877,77.820155 245.54346,77.644873 246.091,77.272914 L 247.51079,79.282704 C 246.54439,79.890114 245.6076,80.141263 244.70042,80.036151 C 243.79323,79.931029 242.91568,79.453074 242.06777,78.602284 C 241.10403,77.635281 240.63975,76.559332 240.6749,75.374436 C 240.71419,74.193688 241.27336,73.065612 242.35242,71.990203 C 243.44392,70.902392 244.5801,70.344984 245.76097,70.317977 C 246.94597,70.286844 248.02861,70.763075 249.0089,71.746672 C 249.81131,72.551816 250.27397,73.364668 250.39689,74.185231 C 250.52807,75.005808 250.34222,75.873495 249.83936,76.788293 M 254.37532,75.908794 L 256.09704,74.406265 L 257.72093,76.267055 L 255.9992,77.769584 L 254.37532,75.908794 M 246.38915,82.878216 L 253.42174,76.740964 L 255.04563,78.601754 L 248.01304,84.739006 L 246.38915,82.878216 M 249.62841,86.676687 L 259.70062,78.641277 L 261.24083,80.571898 L 251.16862,88.607308 L 249.62841,86.676687 M 259.41717,91.618995 C 260.113,91.184575 260.89352,90.935591 261.75874,90.872043 C 262.62395,90.808499 263.42352,90.982799 264.15745,91.394943 C 264.89448,91.812061 265.50503,92.4083 265.98911,93.183661 C 266.73692,94.381495 266.9596,95.606709 266.65714,96.859306 C 266.35963,98.108793 265.61694,99.104347 264.42905,99.845973 C 263.23121,100.59379 261.99512,100.82671 260.72079,100.54474 C 259.45451,100.26462 258.45522,99.538066 257.72292,98.365088 C 257.26987,97.639425 257.00102,96.843673 256.91636,95.977832 C 256.8348,95.116956 257.00258,94.318004 257.4197,93.580973 C 257.84178,92.840839 258.5076,92.186847 259.41717,91.618995 M 260.64584,93.835969 C 259.86053,94.326244 259.37549,94.888093 259.19072,95.521518 C 259.00594,96.154939 259.08421,96.745015 259.42555,97.291748 C 259.76688,97.838473 260.2611,98.165411 260.90823,98.272563 C 261.55846,98.384675 262.28119,98.192493 263.07644,97.696015 C 263.8518,97.211942 264.33186,96.653196 264.51665,96.019775 C 264.70452,95.39132 264.6278,94.80373 264.28647,94.257001 C 263.94513,93.710271 263.44935,93.380848 262.79913,93.268731 C 262.1489,93.156614 261.43113,93.345693 260.64584,93.835969 M 269.07945,98.791012 L 269.71543,100.00568 L 270.33834,99.679541 C 271.03391,99.315352 271.59105,99.116239 272.00976,99.082202 C 272.43117,99.053364 272.85157,99.180481 273.27097,99.463554 C 273.69825,99.749107 274.07089,100.19555 274.38889,100.80288 C 274.71502,101.42579 274.94093,102.08465 275.06663,102.77944 L 273.38558,103.28261 C 273.28653,102.89133 273.15275,102.53478 272.98426,102.21294 C 272.81846,101.8963 272.6236,101.70731 272.3997,101.64597 C 272.18367,101.58711 271.86544,101.66775 271.44499,101.88789 L 270.86101,102.19365 L 271.71713,103.82879 L 269.99635,104.72976 L 269.14022,103.09462 L 262.59189,106.5232 L 261.44632,104.33523 L 267.99465,100.90665 L 267.35867,99.691981 L 269.07945,98.791012 M 266.16882,113.97638 L 278.23933,109.46861 L 281.58172,118.41857 L 279.53978,119.18114 L 277.10755,112.66834 L 274.43162,113.66767 L 276.69473,119.72763 L 274.66102,120.48712 L 272.39791,114.42716 L 269.11269,115.65404 L 271.63101,122.39739 L 269.59731,123.15688 L 266.16882,113.97638 M 271.7713,131.22578 L 273.1235,130.873 C 272.55579,130.66989 272.06277,130.33527 271.64444,129.86914 C 271.22758,129.40867 270.9415,128.88079 270.78619,128.28549 C 270.62792,127.67884 270.61915,127.0998 270.75989,126.54836 C 270.90063,125.99692 271.18386,125.55062 271.60957,125.20945 C 272.03527,124.86827 272.67334,124.58674 273.52379,124.36487 L 279.23874,122.87386 L 279.86221,125.26359 L 275.71207,126.34635 C 274.44207,126.67768 273.6736,126.92359 273.40664,127.08408 C 273.14682,127.24875 272.9622,127.4695 272.85276,127.74633 C 272.74898,128.02167 272.74369,128.33794 272.83688,128.69513 C 272.94338,129.10334 273.14934,129.44018 273.45477,129.70566 C 273.76587,129.96966 274.10136,130.11829 274.46127,130.15157 C 274.82683,130.18335 275.65595,130.03062 276.94862,129.69338 L 280.75859,128.69937 L 281.38206,131.0891 L 272.3504,133.44543 L 271.7713,131.22578 M 273.23506,138.29976 L 272.80245,135.86822 L 281.99211,134.2332 L 282.39394,136.49168 L 281.08731,136.72415 C 281.77333,137.00084 282.24161,137.2746 282.49216,137.54545 C 282.74371,137.82207 282.90439,138.15651 282.97419,138.5488 C 283.07271,139.10259 283.01478,139.6634 282.80039,140.23123 L 280.54642,139.8556 C 280.73891,139.3988 280.80385,138.99445 280.74125,138.64256 C 280.68068,138.3022 280.53418,138.03069 280.30174,137.82805 C 280.07505,137.62437 279.70422,137.49693 279.18924,137.44572 C 278.67528,137.40028 277.63664,137.51663 276.0733,137.79478 L 273.23506,138.29976 M 278.74527,141.83238 C 279.56167,141.75244 280.37153,141.87626 281.17486,142.20384 C 281.97817,142.53142 282.61699,143.04289 283.09131,143.73826 C 283.56619,144.43947 283.84817,145.24492 283.93724,146.15464 C 284.07484,147.56002 283.72983,148.75656 282.90222,149.74426 C 282.08043,150.73137 280.97267,151.29316 279.57895,151.42962 C 278.17356,151.56722 276.96273,151.22655 275.94646,150.40763 C 274.93658,149.59395 274.36427,148.499 274.22953,147.12278 C 274.14617,146.27138 274.25896,145.43904 274.5679,144.62577 C 274.87741,143.81833 275.38277,143.17717 276.08397,142.70229 C 276.791,142.22683 277.6781,141.93686 278.74527,141.83238 M 278.86071,144.36443 C 277.93933,144.45464 277.25513,144.7424 276.80811,145.22773 C 276.36109,145.71305 276.16898,146.27644 276.23179,146.91791 C 276.29459,147.55936 276.59204,148.07188 277.12414,148.45546 C 277.6568,148.84485 278.38965,148.99388 279.3227,148.90253 C 280.2324,148.81345 280.91077,148.52626 281.3578,148.04094 C 281.80539,147.56145 281.99778,147.00097 281.93498,146.35951 C 281.87217,145.71804 281.57444,145.20261 281.04178,144.81321 C 280.5091,144.42381 279.78208,144.27421 278.86071,144.36443 M 284.3082,153.7581 L 284.30971,156.06083 L 282.93862,156.06173 C 283.40756,156.36025 283.78868,156.7643 284.08199,157.27387 C 284.37529,157.78344 284.52214,158.34877 284.52256,158.96987 C 284.52326,160.05385 284.09906,160.97405 283.24995,161.73047 C 282.40083,162.48688 281.21749,162.86559 279.69992,162.86659 C 278.14132,162.8676 276.92818,162.48754 276.0605,161.7264 C 275.19867,160.96524 274.7674,160.04267 274.76669,158.95869 C 274.76635,158.44306 274.86858,157.97425 275.07338,157.55224 C 275.27819,157.13609 275.62946,156.6964 276.12721,156.23319 L 271.42506,156.23628 L 271.42344,153.76655 L 284.3082,153.7581 M 279.80102,156.20442 C 278.75219,156.2051 277.97596,156.41362 277.47233,156.82997 C 276.97455,157.2463 276.72586,157.7533 276.72625,158.35096 C 276.72663,158.92518 276.95546,159.40256 277.41274,159.78313 C 277.87588,160.16368 278.63186,160.35361 279.68069,160.35293 C 280.6592,160.35228 281.38563,160.15552 281.85999,159.76264 C 282.33434,159.36974 282.57132,158.88326 282.57095,158.30318 C 282.57055,157.69966 282.33584,157.19884 281.86684,156.80072 C 281.40368,156.40258 280.71507,156.20381 279.80102,156.20442 M 277.2953,170.49698 L 276.65594,172.90905 C 275.7868,172.51037 275.14771,171.94775 274.73867,171.22118 C 274.33492,170.50097 274.18056,169.63038 274.27558,168.60941 C 274.42599,166.99335 275.06529,165.84648 276.19349,165.16882 C 277.09646,164.63497 278.19261,164.42804 279.48197,164.54804 C 281.02218,164.69139 282.18947,165.20607 282.98383,166.09209 C 283.78402,166.97865 284.12683,168.03743 284.01227,169.26844 C 283.88357,170.65113 283.32405,171.6995 282.33371,172.41354 C 281.34918,173.1281 279.91634,173.38019 278.03517,173.16982 L 278.60856,167.00894 C 277.87766,166.95857 277.29036,167.10399 276.84668,167.4452 C 276.40883,167.78695 276.16357,168.24079 276.1109,168.8067 C 276.07506,169.19175 276.14994,169.52532 276.33554,169.80741 C 276.52113,170.08949 276.84105,170.31935 277.2953,170.49698 M 279.76762,170.86831 C 280.48101,170.91704 281.03777,170.78349 281.43791,170.46766 C 281.84387,170.15235 282.0702,169.74383 282.1169,169.2421 C 282.16685,168.70535 282.01267,168.24377 281.65437,167.85734 C 281.29605,167.47091 280.78116,167.24939 280.1097,167.19279 L 279.76762,170.86831"
         id="text3373"
         style="font-size:18px;font-style:normal;font-variant:normal;font-weight:bold;font-stretch:normal;text-align:start;line-height:100%;writing-mode:lr-tb;text-anchor:start;fill:#bbd401;fill-opacity:1;stroke:none;stroke-width:1px;stroke-linecap:butt;stroke-linejoin:miter;stroke-opacity:1;font-family:Arial;-inkscape-font-specification:Sans Bold" />
    </g>
  </g>
</svg>
